<svg id="Layer_1" data-name="Layer 1" xmlns="http://www.w3.org/2000/svg" viewBox="0 0 921.6 921.6"><defs><style>.cls-1{fill:#006646;}</style></defs><path class="cls-1" d="M960,79.2c-125.15,0-140.84.53-190,2.77s-82.54,10-111.85,21.42c-30.31,11.78-56,27.53-81.62,53.15s-41.37,51.32-53.15,81.62C512,267.47,504.21,301,502,350s-2.77,64.84-2.77,190,.53,140.84,2.77,190,10,82.55,21.42,111.86c11.78,30.3,27.53,56,53.15,81.62s51.31,41.37,81.62,53.15C687.47,988,721,995.79,770,998s64.84,2.78,190,2.78,140.84-.53,190-2.78,82.55-10,111.86-21.41c30.3-11.78,56-27.54,81.62-53.15s41.37-51.32,53.15-81.62C1408,812.53,1415.79,779,1418,730s2.78-64.84,2.78-190-.53-140.84-2.78-190-10-82.54-21.41-111.85c-11.78-30.3-27.54-56-53.15-81.62s-51.32-41.37-81.62-53.15C1232.53,92,1199,84.21,1150,82S1085.14,79.2,960,79.2Zm0,83c123,0,137.61.47,186.2,2.68,44.93,2.05,69.33,9.56,85.56,15.87,21.51,8.36,36.86,18.35,53,34.47s26.11,31.48,34.47,53c6.31,16.24,13.81,40.64,15.86,85.57,2.22,48.59,2.69,63.16,2.69,186.2s-.47,137.61-2.69,186.2c-2,44.93-9.55,69.33-15.86,85.56-8.36,21.51-18.35,36.86-34.47,53s-31.48,26.11-53,34.47c-16.23,6.31-40.63,13.81-85.56,15.86-48.58,2.22-63.15,2.69-186.2,2.69s-137.62-.47-186.2-2.69c-44.93-2.05-69.33-9.55-85.57-15.86-21.51-8.36-36.86-18.35-53-34.47s-26.11-31.48-34.47-53c-6.31-16.23-13.82-40.63-15.87-85.56-2.22-48.59-2.68-63.16-2.68-186.2s.46-137.61,2.68-186.2c2.05-44.93,9.56-69.33,15.87-85.57,8.36-21.5,18.34-36.86,34.47-53s31.47-26.11,53-34.47c16.24-6.31,40.64-13.82,85.57-15.87C822.39,162.7,837,162.23,960,162.23Z" transform="translate(-499.2 -79.2)"/><path class="cls-1" d="M960,693.6A153.6,153.6,0,1,1,1113.6,540,153.6,153.6,0,0,1,960,693.6Zm0-390.23c-130.69,0-236.63,105.94-236.63,236.63S829.31,776.62,960,776.62,1196.62,670.68,1196.62,540,1090.68,303.37,960,303.37Z" transform="translate(-499.2 -79.2)"/><path class="cls-1" d="M1261.27,294a55.3,55.3,0,1,1-55.3-55.29A55.3,55.3,0,0,1,1261.27,294Z" transform="translate(-499.2 -79.2)"/></svg>