<?xml version="1.0" encoding="utf-8"?>
<!-- Generator: Adobe Illustrator 25.0.0, SVG Export Plug-In . SVG Version: 6.00 Build 0)  -->
<svg version="1.1" id="Capa_1" xmlns="http://www.w3.org/2000/svg" xmlns:xlink="http://www.w3.org/1999/xlink" x="0px" y="0px"
	 viewBox="0 0 90 90" style="enable-background:new 0 0 90 90;" xml:space="preserve">
<style type="text/css">
	.st0{fill:#79A418;}
</style>
<path id="WhatsApp" class="st0" d="M90,43.8c-0.1,24.3-19.9,43.9-44.2,43.8c0,0,0,0,0,0c-7.5,0-14.8-1.9-21.4-5.5L0,90l8-23.5
	C-4.5,45.8,2.2,18.8,22.9,6.3C29.8,2.1,37.7,0,45.8,0C70.1-0.1,89.9,19.5,90,43.8C90,43.8,90,43.8,90,43.8z M45.8,7
	C25.4,6.9,8.8,23.4,8.7,43.8c0,7.8,2.5,15.4,7.1,21.6l-4.6,13.7l14.3-4.5C42.4,86,65.4,81.4,76.7,64.5s6.8-39.9-10.1-51.2
	C60.5,9.1,53.2,6.9,45.8,7z M68.1,53.9c-0.6-0.5-1.3-1-2.1-1.3c-1.1-0.5-6.4-3.1-7.4-3.5s-1.7-0.5-2.4,0.5s-2.8,3.5-3.4,4.2
	c-0.6,0.7-1.6,0.8-2.3,0.3c-3.2-1.2-6.1-3-8.7-5.3c-2.4-2.2-4.4-4.7-6-7.4c-0.5-0.7-0.3-1.7,0.4-2.1c0,0,0.1,0,0.1-0.1
	c0.5-0.5,1.1-1.3,1.6-1.9c0.4-0.6,0.8-1.2,1.1-1.8c0.3-0.6,0.3-1.3-0.1-1.9c-0.3-0.5-2.4-5.8-3.3-8s-1.8-1.8-2.4-1.8
	s-1.4-0.1-2.1-0.1c-1.1,0-2.1,0.5-2.9,1.3c-2.5,2.3-3.9,5.6-3.8,9c0,5.3,3.9,10.4,4.4,11.1S36.3,57,47.3,61.3s11,2.9,13,2.7
	s6.4-2.6,7.3-5.1S68.4,54.4,68.1,53.9z"/>
</svg>
