<?xml version="1.0" encoding="utf-8"?>
<!-- Generator: Adobe Illustrator 24.0.2, SVG Export Plug-In . SVG Version: 6.00 Build 0)  -->
<svg version="1.1" id="Layer_1" xmlns:serif="http://www.serif.com/"
	 xmlns="http://www.w3.org/2000/svg" xmlns:xlink="http://www.w3.org/1999/xlink" x="0px" y="0px" viewBox="0 0 1080 1080"
	 style="enable-background:new 0 0 1080 1080;" xml:space="preserve">
<style type="text/css">
	.st0{fill:#FFFFFF;}
</style>
<g transform="matrix(1.01619,0,0,1.01619,44,43.8384)">
	<path class="st0" d="M488.1,34.8c-123.2,0-138.6,0.5-187,2.7c-48.3,2.2-81.2,9.9-110.1,21.1c-29.8,11.6-55.1,27.1-80.3,52.3
		S70,161.4,58.4,191.2C47.2,220.1,39.6,253,37.4,301.3c-2.2,48.4-2.7,63.8-2.7,187c0,123.2,0.5,138.6,2.7,187
		c2.2,48.3,9.9,81.2,21.1,110.1c11.6,29.8,27.1,55.1,52.3,80.3c25.2,25.2,50.5,40.7,80.3,52.3c28.8,11.2,61.8,18.9,110.1,21.1
		c48.4,2.2,63.8,2.7,187,2.7c123.2,0,138.6-0.5,187-2.7c48.3-2.2,81.2-9.9,110.1-21.1c29.8-11.6,55.1-27.1,80.3-52.3
		c25.2-25.2,40.7-50.5,52.3-80.3c11.2-28.8,18.9-61.8,21.1-110.1c2.2-48.4,2.7-63.8,2.7-187c0-123.2-0.5-138.6-2.7-187
		c-2.2-48.3-9.9-81.2-21.1-110.1c-11.6-29.8-27.1-55.1-52.3-80.3c-25.2-25.2-50.5-40.7-80.3-52.3c-28.8-11.2-61.8-18.9-110.1-21.1
		C626.7,35.3,611.2,34.8,488.1,34.8z M488.1,116.5c121.1,0,135.4,0.5,183.2,2.6c44.2,2,68.2,9.4,84.2,15.6
		c21.2,8.2,36.3,18.1,52.1,33.9c15.9,15.9,25.7,31,33.9,52.1c6.2,16,13.6,40,15.6,84.2c2.2,47.8,2.6,62.2,2.6,183.2
		c0,121.1-0.5,135.4-2.6,183.2c-2,44.2-9.4,68.2-15.6,84.2c-8.2,21.2-18.1,36.3-33.9,52.1c-15.9,15.9-31,25.7-52.1,33.9
		c-16,6.2-40,13.6-84.2,15.6c-47.8,2.2-62.1,2.6-183.2,2.6c-121.1,0-135.4-0.5-183.2-2.6c-44.2-2-68.2-9.4-84.2-15.6
		c-21.2-8.2-36.3-18.1-52.1-33.9c-15.9-15.9-25.7-31-33.9-52.1c-6.2-16-13.6-40-15.6-84.2c-2.2-47.8-2.6-62.2-2.6-183.2
		c0-121.1,0.5-135.4,2.6-183.2c2-44.2,9.4-68.2,15.6-84.2c8.2-21.2,18.1-36.3,33.9-52.1c15.9-15.9,31-25.7,52.1-33.9
		c16-6.2,40-13.6,84.2-15.6C352.7,117,367,116.5,488.1,116.5z"/>
	<path class="st0" d="M488.1,639.4c-83.5,0-151.2-67.7-151.2-151.2c0-83.5,67.7-151.2,151.2-151.2c83.5,0,151.2,67.7,151.2,151.2
		C639.2,571.7,571.6,639.4,488.1,639.4z M488.1,255.4c-128.6,0-232.9,104.3-232.9,232.9c0,128.6,104.3,232.9,232.9,232.9
		c128.6,0,232.9-104.3,232.9-232.9C721,359.7,616.7,255.4,488.1,255.4z"/>
	<path class="st0" d="M784.6,246.2c0,30.1-24.4,54.4-54.4,54.4c-30.1,0-54.4-24.4-54.4-54.4s24.4-54.4,54.4-54.4
		C760.2,191.8,784.6,216.1,784.6,246.2z"/>
</g>
</svg>
