<svg id="Capa_1" data-name="Capa 1" xmlns="http://www.w3.org/2000/svg" viewBox="0 0 90 90"><defs><style>.cls-1{fill:#fff;}</style></defs><title>iconfinder_whatsapp-logo_1269930</title><path id="WhatsApp" class="cls-1" d="M90,43.8A44,44,0,0,1,45.8,87.6a44.51,44.51,0,0,1-21.4-5.5L0,90,8,66.5A43.85,43.85,0,0,1,45.8,0,44,44,0,0,1,90,43.8ZM45.8,7A37,37,0,0,0,8.7,43.8a36.08,36.08,0,0,0,7.1,21.6L11.2,79.1l14.3-4.5A36.93,36.93,0,1,0,45.8,7ZM68.1,53.9A7.69,7.69,0,0,0,66,52.6c-1.1-.5-6.4-3.1-7.4-3.5s-1.7-.5-2.4.5-2.8,3.5-3.4,4.2a1.67,1.67,0,0,1-2.3.3,29.07,29.07,0,0,1-8.7-5.3,32.38,32.38,0,0,1-6-7.4,1.54,1.54,0,0,1,.5-2.2c.5-.5,1.1-1.3,1.6-1.9A10.81,10.81,0,0,0,39,35.5a1.84,1.84,0,0,0-.1-1.9c-.3-.5-2.4-5.8-3.3-8s-1.8-1.8-2.4-1.8-1.4-.1-2.1-.1A4.31,4.31,0,0,0,28.2,25a12.11,12.11,0,0,0-3.8,9c0,5.3,3.9,10.4,4.4,11.1S36.3,57,47.3,61.3s11,2.9,13,2.7,6.4-2.6,7.3-5.1S68.4,54.4,68.1,53.9Z"/></svg>